<svg width="20" height="16" viewBox="0 0 20 16" fill="none" xmlns="http://www.w3.org/2000/svg">
<path d="M14.9502 12.9499C13.5257 14.0358 11.7911 14.6373 10.0002 14.6666C4.16683 14.6666 0.833496 7.99994 0.833496 7.99994C1.87007 6.06819 3.30778 4.38045 5.05016 3.04994M8.25016 1.53327C8.82377 1.39901 9.41105 1.33189 10.0002 1.33327C15.8335 1.33327 19.1668 7.99994 19.1668 7.99994C18.661 8.94628 18.0577 9.83722 17.3668 10.6583M11.7668 9.76661C11.538 10.0122 11.262 10.2092 10.9553 10.3459C10.6486 10.4825 10.3176 10.556 9.98191 10.5619C9.64623 10.5678 9.3128 10.5061 9.00151 10.3803C8.69021 10.2546 8.40743 10.0675 8.17004 9.83007C7.93264 9.59267 7.74549 9.30989 7.61975 8.9986C7.49402 8.6873 7.43227 8.35387 7.43819 8.0182C7.44411 7.68252 7.51759 7.35148 7.65423 7.04481C7.79087 6.73815 7.98787 6.46215 8.2335 6.23327" stroke="#121417" stroke-width="2" stroke-linecap="round" stroke-linejoin="round"/>
</svg>
