<!-- Generated by IcoMoon.io -->
<svg version="1.1" xmlns="http://www.w3.org/2000/svg" width="40" height="32" viewBox="0 0 40 32">
<title>EyeOn</title>
<path fill="none" stroke-linejoin="round" stroke-linecap="round" stroke-miterlimit="4" stroke-width="4" stroke="#000" d="M29.9 25.9c-2.849 2.172-6.318 3.375-9.9 3.433-11.667 0-18.333-13.333-18.333-13.333 2.073-3.864 4.949-7.239 8.433-9.9M16.5 3.067c1.147-0.269 2.322-0.403 3.5-0.4 11.667 0 18.333 13.333 18.333 13.333-1.012 1.893-2.218 3.675-3.6 5.317M23.534 19.533c-0.458 0.491-1.010 0.885-1.623 1.159s-1.275 0.42-1.947 0.432-1.338-0.112-1.961-0.363c-0.623-0.251-1.188-0.626-1.663-1.1s-0.849-1.040-1.101-1.663-0.375-1.289-0.363-1.961c0.012-0.671 0.159-1.333 0.432-1.947s0.667-1.165 1.159-1.623"></path>
</svg>
