<!-- Generated by IcoMoon.io -->
<svg version="1.1" xmlns="http://www.w3.org/2000/svg" width="26" height="32" viewBox="0 0 26 32">
<title>mac</title>
<path d="M19.7 0.778c0 1.566-0.56 3.029-1.679 4.382-1.349 1.609-2.98 2.539-4.749 2.392-0.023-0.178-0.035-0.383-0.035-0.592 0-0.001 0-0.001 0-0.002v0c0-1.503 0.642-3.113 1.781-4.428 0.569-0.666 1.292-1.22 2.169-1.662 0.875-0.436 1.703-0.676 2.481-0.717 0.020 0.188 0.032 0.406 0.032 0.626v0z"></path>
<path d="M25.622 24.557c-0.493 1.161-1.046 2.156-1.688 3.084l0.037-0.057c-0.868 1.263-1.578 2.136-2.125 2.622-0.849 0.796-1.758 1.204-2.732 1.227-0.699 0-1.542-0.203-2.523-0.615-0.985-0.41-1.889-0.613-2.717-0.613-0.867 0-1.798 0.203-2.794 0.613-0.997 0.412-1.8 0.627-2.414 0.648-0.934 0.040-1.864-0.379-2.794-1.261-0.593-0.528-1.334-1.432-2.223-2.714-0.953-1.369-1.737-2.956-2.351-4.765-0.658-1.954-0.988-3.846-0.988-5.679 0-2.099 0.445-3.909 1.335-5.426 0.7-1.218 1.63-2.179 2.795-2.885 1.076-0.668 2.379-1.071 3.774-1.088l0.005-0c0.742 0 1.715 0.234 2.923 0.694 1.205 0.462 1.979 0.696 2.319 0.696 0.253 0 1.113-0.274 2.57-0.82 1.378-0.506 2.541-0.716 3.494-0.633 2.582 0.213 4.522 1.252 5.812 3.123-2.309 1.428-3.451 3.427-3.428 5.992 0.021 1.999 0.731 3.661 2.128 4.982 0.598 0.585 1.302 1.064 2.080 1.405l0.045 0.018c-0.17 0.505-0.35 0.988-0.542 1.452z"></path>
</svg>
